<mxfile host="app.diagrams.net" modified="2023-03-13T13:52:28.060Z" agent="5.0 (Windows NT 10.0; Win64; x64) AppleWebKit/537.36 (KHTML, like Gecko) Chrome/111.0.0.0 Safari/537.36" etag="AFnBn4YeGbw4_6ngQcxo" version="21.0.6" type="github">
  <diagram name="Page-1" id="SqR4436cuzlIuRwCrBAg">
    <mxGraphModel dx="989" dy="549" grid="0" gridSize="10" guides="1" tooltips="1" connect="1" arrows="1" fold="1" page="1" pageScale="1" pageWidth="850" pageHeight="1100" math="0" shadow="0">
      <root>
        <mxCell id="0" />
        <mxCell id="1" parent="0" />
        <mxCell id="vA74WYsW3h6mt3bC6vRQ-24" style="edgeStyle=orthogonalEdgeStyle;rounded=0;orthogonalLoop=1;jettySize=auto;html=1;" edge="1" parent="1">
          <mxGeometry relative="1" as="geometry">
            <mxPoint x="230" y="92" as="sourcePoint" />
            <mxPoint x="285" y="167" as="targetPoint" />
            <Array as="points">
              <mxPoint x="230" y="90" />
              <mxPoint x="259" y="90" />
              <mxPoint x="259" y="167" />
            </Array>
          </mxGeometry>
        </mxCell>
        <mxCell id="vA74WYsW3h6mt3bC6vRQ-1" value="ENTREPRISE_MARKETING" style="swimlane;whiteSpace=wrap;html=1;" vertex="1" parent="1">
          <mxGeometry x="60" y="50" width="170" height="119" as="geometry" />
        </mxCell>
        <mxCell id="vA74WYsW3h6mt3bC6vRQ-2" value="id_entreprise" style="text;html=1;strokeColor=none;fillColor=none;align=center;verticalAlign=middle;whiteSpace=wrap;rounded=0;" vertex="1" parent="vA74WYsW3h6mt3bC6vRQ-1">
          <mxGeometry x="9" y="45" width="70" height="30" as="geometry" />
        </mxCell>
        <mxCell id="vA74WYsW3h6mt3bC6vRQ-4" value="CA" style="text;html=1;strokeColor=#d6b656;fillColor=#fff2cc;align=center;verticalAlign=middle;whiteSpace=wrap;rounded=0;" vertex="1" parent="vA74WYsW3h6mt3bC6vRQ-1">
          <mxGeometry x="3" y="70" width="30" height="30" as="geometry" />
        </mxCell>
        <mxCell id="vA74WYsW3h6mt3bC6vRQ-19" value="annee" style="text;html=1;strokeColor=none;fillColor=none;align=center;verticalAlign=middle;whiteSpace=wrap;rounded=0;" vertex="1" parent="vA74WYsW3h6mt3bC6vRQ-1">
          <mxGeometry x="10" y="93" width="30" height="30" as="geometry" />
        </mxCell>
        <mxCell id="vA74WYsW3h6mt3bC6vRQ-40" value="id_entreprise_marketing" style="text;html=1;strokeColor=none;fillColor=none;align=center;verticalAlign=middle;whiteSpace=wrap;rounded=0;" vertex="1" parent="vA74WYsW3h6mt3bC6vRQ-1">
          <mxGeometry x="60" y="26" width="30" height="30" as="geometry" />
        </mxCell>
        <mxCell id="vA74WYsW3h6mt3bC6vRQ-27" style="edgeStyle=orthogonalEdgeStyle;rounded=0;orthogonalLoop=1;jettySize=auto;html=1;exitX=1;exitY=0.25;exitDx=0;exitDy=0;" edge="1" parent="1" source="vA74WYsW3h6mt3bC6vRQ-5">
          <mxGeometry relative="1" as="geometry">
            <mxPoint x="479" y="112" as="targetPoint" />
          </mxGeometry>
        </mxCell>
        <mxCell id="vA74WYsW3h6mt3bC6vRQ-5" value="METIER" style="swimlane;whiteSpace=wrap;html=1;" vertex="1" parent="1">
          <mxGeometry x="285" y="50" width="145" height="134" as="geometry" />
        </mxCell>
        <mxCell id="vA74WYsW3h6mt3bC6vRQ-6" value="id_metier" style="text;html=1;strokeColor=none;fillColor=none;align=center;verticalAlign=middle;whiteSpace=wrap;rounded=0;" vertex="1" parent="vA74WYsW3h6mt3bC6vRQ-5">
          <mxGeometry x="-1" y="22" width="70" height="30" as="geometry" />
        </mxCell>
        <mxCell id="vA74WYsW3h6mt3bC6vRQ-7" value="id_secteur" style="text;html=1;strokeColor=none;fillColor=none;align=center;verticalAlign=middle;whiteSpace=wrap;rounded=0;" vertex="1" parent="vA74WYsW3h6mt3bC6vRQ-5">
          <mxGeometry x="18" y="40" width="40" height="30" as="geometry" />
        </mxCell>
        <mxCell id="vA74WYsW3h6mt3bC6vRQ-8" value="CA" style="text;html=1;strokeColor=#d6b656;fillColor=#fff2cc;align=center;verticalAlign=middle;whiteSpace=wrap;rounded=0;" vertex="1" parent="vA74WYsW3h6mt3bC6vRQ-5">
          <mxGeometry x="4" y="66" width="30" height="30" as="geometry" />
        </mxCell>
        <mxCell id="vA74WYsW3h6mt3bC6vRQ-22" value="libelle" style="text;html=1;strokeColor=none;fillColor=none;align=center;verticalAlign=middle;whiteSpace=wrap;rounded=0;" vertex="1" parent="vA74WYsW3h6mt3bC6vRQ-5">
          <mxGeometry x="10" y="91" width="30" height="30" as="geometry" />
        </mxCell>
        <mxCell id="vA74WYsW3h6mt3bC6vRQ-26" value="id_entreprise_marketing" style="text;html=1;strokeColor=none;fillColor=none;align=center;verticalAlign=middle;whiteSpace=wrap;rounded=0;" vertex="1" parent="vA74WYsW3h6mt3bC6vRQ-5">
          <mxGeometry x="58" y="110" width="30" height="30" as="geometry" />
        </mxCell>
        <mxCell id="vA74WYsW3h6mt3bC6vRQ-37" style="edgeStyle=orthogonalEdgeStyle;rounded=0;orthogonalLoop=1;jettySize=auto;html=1;exitX=1;exitY=0.25;exitDx=0;exitDy=0;" edge="1" parent="1" source="vA74WYsW3h6mt3bC6vRQ-9">
          <mxGeometry relative="1" as="geometry">
            <mxPoint x="669.6206896551726" y="106.17241379310349" as="targetPoint" />
            <mxPoint x="619" y="114" as="sourcePoint" />
            <Array as="points">
              <mxPoint x="644" y="94" />
              <mxPoint x="644" y="106" />
            </Array>
          </mxGeometry>
        </mxCell>
        <mxCell id="vA74WYsW3h6mt3bC6vRQ-9" value="SECTEUR" style="swimlane;whiteSpace=wrap;html=1;" vertex="1" parent="1">
          <mxGeometry x="480" y="51" width="140" height="123" as="geometry" />
        </mxCell>
        <mxCell id="vA74WYsW3h6mt3bC6vRQ-10" value="id_secteur" style="text;html=1;strokeColor=none;fillColor=none;align=center;verticalAlign=middle;whiteSpace=wrap;rounded=0;" vertex="1" parent="vA74WYsW3h6mt3bC6vRQ-9">
          <mxGeometry x="5" y="24" width="70" height="30" as="geometry" />
        </mxCell>
        <mxCell id="vA74WYsW3h6mt3bC6vRQ-12" value="CA" style="text;html=1;strokeColor=#d6b656;fillColor=#fff2cc;align=center;verticalAlign=middle;whiteSpace=wrap;rounded=0;" vertex="1" parent="vA74WYsW3h6mt3bC6vRQ-9">
          <mxGeometry x="5" y="71" width="30" height="30" as="geometry" />
        </mxCell>
        <mxCell id="vA74WYsW3h6mt3bC6vRQ-23" value="libelle" style="text;html=1;strokeColor=none;fillColor=none;align=center;verticalAlign=middle;whiteSpace=wrap;rounded=0;" vertex="1" parent="vA74WYsW3h6mt3bC6vRQ-9">
          <mxGeometry x="12" y="96" width="30" height="30" as="geometry" />
        </mxCell>
        <mxCell id="vA74WYsW3h6mt3bC6vRQ-28" value="id_metier" style="text;html=1;strokeColor=none;fillColor=none;align=center;verticalAlign=middle;whiteSpace=wrap;rounded=0;" vertex="1" parent="vA74WYsW3h6mt3bC6vRQ-9">
          <mxGeometry x="23" y="46" width="30" height="30" as="geometry" />
        </mxCell>
        <mxCell id="vA74WYsW3h6mt3bC6vRQ-17" value="&lt;br&gt;" style="text;html=1;strokeColor=#d6b656;fillColor=#fff2cc;align=center;verticalAlign=middle;whiteSpace=wrap;rounded=0;" vertex="1" parent="1">
          <mxGeometry x="72" y="214" width="30" height="30" as="geometry" />
        </mxCell>
        <mxCell id="vA74WYsW3h6mt3bC6vRQ-18" value=": Données calculées lors du batch" style="text;html=1;strokeColor=none;fillColor=none;align=center;verticalAlign=middle;whiteSpace=wrap;rounded=0;" vertex="1" parent="1">
          <mxGeometry x="112" y="214" width="190" height="30" as="geometry" />
        </mxCell>
        <mxCell id="vA74WYsW3h6mt3bC6vRQ-31" value="EXPERTISE" style="swimlane;whiteSpace=wrap;html=1;" vertex="1" parent="1">
          <mxGeometry x="667" y="50" width="145" height="146" as="geometry" />
        </mxCell>
        <mxCell id="vA74WYsW3h6mt3bC6vRQ-32" value="id_expertise" style="text;html=1;strokeColor=none;fillColor=none;align=center;verticalAlign=middle;whiteSpace=wrap;rounded=0;" vertex="1" parent="vA74WYsW3h6mt3bC6vRQ-31">
          <mxGeometry x="7" y="22" width="70" height="30" as="geometry" />
        </mxCell>
        <mxCell id="vA74WYsW3h6mt3bC6vRQ-33" value="id_secteur" style="text;html=1;strokeColor=none;fillColor=none;align=center;verticalAlign=middle;whiteSpace=wrap;rounded=0;" vertex="1" parent="vA74WYsW3h6mt3bC6vRQ-31">
          <mxGeometry x="18" y="40" width="40" height="30" as="geometry" />
        </mxCell>
        <mxCell id="vA74WYsW3h6mt3bC6vRQ-35" value="libelle" style="text;html=1;strokeColor=none;fillColor=none;align=center;verticalAlign=middle;whiteSpace=wrap;rounded=0;" vertex="1" parent="vA74WYsW3h6mt3bC6vRQ-31">
          <mxGeometry x="10" y="60" width="30" height="30" as="geometry" />
        </mxCell>
        <mxCell id="vA74WYsW3h6mt3bC6vRQ-38" value="CA" style="text;html=1;strokeColor=none;fillColor=none;align=center;verticalAlign=middle;whiteSpace=wrap;rounded=0;" vertex="1" parent="vA74WYsW3h6mt3bC6vRQ-31">
          <mxGeometry x="5" y="79" width="30" height="30" as="geometry" />
        </mxCell>
        <mxCell id="vA74WYsW3h6mt3bC6vRQ-39" value="PART" style="text;html=1;strokeColor=#d6b656;fillColor=#fff2cc;align=center;verticalAlign=middle;whiteSpace=wrap;rounded=0;" vertex="1" parent="vA74WYsW3h6mt3bC6vRQ-31">
          <mxGeometry x="11" y="102" width="30" height="30" as="geometry" />
        </mxCell>
      </root>
    </mxGraphModel>
  </diagram>
</mxfile>
